<svg width="827" height="974" viewBox="0 0 827 974" fill="none" xmlns="http://www.w3.org/2000/svg">
<path d="M607.328 413.95C500.451 413.95 413.5 495.876 413.5 596.575C413.5 697.275 500.451 779.2 607.328 779.2C714.205 779.2 801.156 697.275 801.156 596.575C801.156 495.876 714.205 413.95 607.328 413.95ZM607.328 754.85C514.704 754.85 439.344 683.846 439.344 596.575C439.344 509.305 514.704 438.3 607.328 438.3C699.952 438.3 775.312 509.305 775.312 596.575C775.312 683.846 699.952 754.85 607.328 754.85Z" fill="white"/>
<path d="M607.328 462.65C528.957 462.65 465.188 522.734 465.188 596.575C465.188 670.416 528.957 730.5 607.328 730.5C638.366 730.5 667.88 721.235 692.638 703.703C698.337 699.661 699.487 692.039 695.21 686.658C690.946 681.289 682.818 680.205 677.119 684.235C656.858 698.577 632.733 706.15 607.328 706.15C543.197 706.15 491.031 656.987 491.031 596.575C491.031 536.163 543.197 487 607.328 487C671.459 487 723.625 536.163 723.625 596.575C723.625 615.836 718.25 634.78 708.08 651.362C704.501 657.182 706.62 664.633 712.784 667.993C718.973 671.354 726.881 669.369 730.435 663.55C742.892 643.266 749.469 620.109 749.469 596.575C749.469 522.734 685.699 462.65 607.328 462.65Z" fill="white"/>
<path d="M607.328 560.05H633.934C641.08 560.05 646.856 554.596 646.856 547.875C646.856 541.155 641.08 535.7 633.934 535.7H607.328C585.955 535.7 568.562 552.088 568.562 572.225C568.562 592.363 585.955 608.75 608.09 608.75C615.223 608.75 621.012 614.217 621.012 620.925C621.012 627.634 615.223 633.1 608.09 633.1H581.484C574.339 633.1 568.562 638.555 568.562 645.275C568.562 651.996 574.339 657.45 581.484 657.45H608.09C629.463 657.45 646.856 641.063 646.856 620.925C646.856 600.788 629.463 584.4 607.328 584.4C600.195 584.4 594.406 578.934 594.406 572.225C594.406 565.517 600.195 560.05 607.328 560.05Z" fill="white"/>
<path d="M348.891 462.65H90.4531C69.0803 462.65 51.6875 479.037 51.6875 499.175V523.525C51.6875 528.273 52.6566 532.814 54.414 536.978C37.9645 541.215 25.8438 555.411 25.8438 572.225V596.575C25.8438 613.389 37.9645 627.585 54.414 631.822C52.6566 635.985 51.6875 640.527 51.6875 645.275V669.625C51.6875 674.373 52.6566 678.914 54.414 683.078C37.9645 687.315 25.8438 701.511 25.8438 718.325V742.675C25.8438 762.812 43.2366 779.2 64.6094 779.2H323.047C344.42 779.2 361.812 762.812 361.812 742.675V718.325C361.812 713.577 360.843 709.035 359.086 704.872C375.536 700.635 387.656 686.439 387.656 669.625V645.275C387.656 628.461 375.536 614.265 359.086 610.028C360.843 605.864 361.812 601.323 361.812 596.575V572.225C361.812 567.477 360.843 562.935 359.086 558.772C375.536 554.535 387.656 540.339 387.656 523.525V499.175C387.656 479.037 370.263 462.65 348.891 462.65ZM361.812 523.525C361.812 530.233 356.023 535.7 348.891 535.7H323.047H271.359C264.214 535.7 258.438 541.154 258.438 547.875C258.438 554.595 264.214 560.05 271.359 560.05H323.047C330.18 560.05 335.969 565.516 335.969 572.225V596.575C335.969 603.283 330.18 608.75 323.047 608.75H193.828C186.682 608.75 180.906 614.204 180.906 620.925C180.906 627.645 186.682 633.1 193.828 633.1H323.047H348.891C356.023 633.1 361.812 638.566 361.812 645.275V669.625C361.812 676.333 356.023 681.8 348.891 681.8H323.047H271.359C264.214 681.8 258.438 687.254 258.438 693.975C258.438 700.695 264.214 706.15 271.359 706.15H323.047C330.18 706.15 335.969 711.616 335.969 718.325V742.675C335.969 749.383 330.18 754.85 323.047 754.85H64.6094C57.4765 754.85 51.6875 749.383 51.6875 742.675V718.325C51.6875 711.616 57.4765 706.15 64.6094 706.15H90.4531H219.672C226.818 706.15 232.594 700.695 232.594 693.975C232.594 687.254 226.818 681.8 219.672 681.8H90.4531C83.3203 681.8 77.5312 676.333 77.5312 669.625V645.275C77.5312 638.566 83.3203 633.1 90.4531 633.1H142.141C149.286 633.1 155.062 627.645 155.062 620.925C155.062 614.204 149.286 608.75 142.141 608.75H90.4531H64.6094C57.4765 608.75 51.6875 603.283 51.6875 596.575V572.225C51.6875 565.516 57.4765 560.05 64.6094 560.05H90.4531H219.672C226.818 560.05 232.594 554.595 232.594 547.875C232.594 541.154 226.818 535.7 219.672 535.7H90.4531C83.3203 535.7 77.5312 530.233 77.5312 523.525V499.175C77.5312 492.466 83.3203 487 90.4531 487H348.891C356.023 487 361.812 492.466 361.812 499.175V523.525Z" fill="white"/>
<path d="M133.987 437.448C135.551 438.032 137.166 438.3 138.755 438.3C143.885 438.3 148.744 435.39 150.773 430.618C182.289 355.79 245.942 296.595 325.567 267.85H501.33C567.774 291.81 623.545 337.053 658.486 395.566C660.864 399.535 665.231 401.775 669.754 401.775C671.899 401.775 674.07 401.276 676.073 400.217C682.288 396.917 684.498 389.503 680.996 383.634C647.257 327.106 595.556 281.985 533.738 254.421C539.269 248.102 542.719 240.128 542.719 231.325C542.719 213.099 528.44 198.075 509.884 195.36L554.723 89.7419C557.372 83.4961 554.142 76.4103 547.513 73.9144L493.383 53.5091L503.566 15.1213C504.535 11.481 503.669 7.63372 501.214 4.6752C498.759 1.71667 495.011 0 491.031 0H335.969C331.989 0 328.229 1.72885 325.786 4.68737C323.344 7.6459 322.466 11.4932 323.435 15.1335L333.617 53.5213L279.487 73.9266C272.858 76.4346 269.628 83.5083 272.277 89.7541L317.116 195.372C298.56 198.075 284.281 213.099 284.281 231.325C284.281 240.14 287.744 248.126 293.288 254.445C217.76 288.134 157.828 347.852 126.751 421.632C124.115 427.89 127.358 434.964 133.987 437.448ZM339.949 77.3599L352.509 124.709C354.24 131.222 361.257 135.216 368.17 133.572C375.096 131.94 379.309 125.329 377.577 118.804L352.522 24.35H474.479L442.975 143.141C441.23 149.667 445.443 156.278 452.382 157.91C453.429 158.165 454.488 158.275 455.522 158.275C461.311 158.275 466.57 154.586 468.043 149.059L487.064 77.3599L525.92 92.0065L482.283 194.8H344.717L301.08 92.0065L339.949 77.3599ZM323.047 219.15H490.993C491.006 219.15 491.018 219.15 491.031 219.15C491.044 219.15 491.057 219.15 491.07 219.15H503.953C511.086 219.15 516.875 224.617 516.875 231.325C516.875 238.033 511.086 243.5 503.953 243.5H323.047C315.914 243.5 310.125 238.033 310.125 231.325C310.125 224.617 315.914 219.15 323.047 219.15Z" fill="white"/>
</svg>
