<svg width="783" height="380" viewBox="0 0 783 380" fill="none" xmlns="http://www.w3.org/2000/svg">
<path d="M393.283 0C440.946 0 484.19 18.4499 515.44 48.3932C546.689 78.3365 565.944 119.773 565.944 165.444C565.944 211.115 546.689 252.552 515.44 282.495C484.19 312.439 440.946 330.889 393.283 330.889C345.62 330.889 302.376 312.439 271.126 282.495C239.877 252.552 220.622 211.115 220.622 165.444C220.622 119.773 239.877 78.3365 271.126 48.3932C302.376 18.4499 345.62 0 393.283 0V0ZM393.283 206.881C406.224 206.881 416.641 216.862 416.641 229.263C416.641 241.664 406.224 251.947 393.283 251.947C380.341 251.947 369.609 241.664 369.609 229.263C369.609 216.862 380.341 206.881 393.283 206.881ZM393.283 184.197C384.445 184.197 378.447 177.24 377.5 169.074L369.609 101.626C368.346 89.8299 381.288 78.9414 393.283 78.9414C405.278 78.9414 418.219 89.8299 416.641 101.626L409.065 169.074C408.118 177.24 402.121 184.197 393.283 184.197V184.197ZM493.028 69.5652C467.461 45.3686 432.108 29.9433 393.283 29.9433C354.142 29.9433 318.789 45.3686 293.222 69.5652C267.97 94.0643 251.871 127.94 251.871 165.444C251.871 202.647 267.97 236.522 293.222 261.021C318.789 285.52 354.142 300.643 393.283 300.643C432.108 300.643 467.461 285.52 493.028 261.021C518.596 236.522 534.379 202.647 534.379 165.444C534.379 127.94 518.596 94.0643 493.028 69.5652V69.5652Z" fill="white"/>
<path fill-rule="evenodd" clip-rule="evenodd" d="M0 240.258H120.694V380H150.404V240.258H165.258V198.581H150.404V39.2258H120.694V198.581H29.7093V0H0V240.258Z" fill="white"/>
<path fill-rule="evenodd" clip-rule="evenodd" d="M617.742 240.258H738.436V380H768.145V240.258H783V198.581H768.145V39.2258H738.436V198.581H647.451V0H617.742V240.258Z" fill="white"/>
</svg>
